<?xml version="1.0" encoding="utf-8"?>
<!-- Generator: Adobe Illustrator 16.0.0, SVG Export Plug-In . SVG Version: 6.00 Build 0)  -->
<!DOCTYPE svg PUBLIC "-//W3C//DTD SVG 1.1//EN" "http://www.w3.org/Graphics/SVG/1.1/DTD/svg11.dtd">
<svg version="1.1" id="Layer_1" xmlns="http://www.w3.org/2000/svg" xmlns:xlink="http://www.w3.org/1999/xlink" x="0px" y="0px"
	 width="1656.725px" height="200.739px" viewBox="0 0 1656.725 200.739" enable-background="new 0 0 1656.725 200.739"
	 xml:space="preserve">
<g>
	<linearGradient id="SVGID_1_" gradientUnits="userSpaceOnUse" x1="31.189" y1="76.5571" x2="1562.4734" y2="-138.7163">
		<stop  offset="0" style="stop-color:#FFCC47"/>
		<stop  offset="0.4783" style="stop-color:#FF4351"/>
		<stop  offset="1" style="stop-color:#2EA7D7"/>
	</linearGradient>
	<rect y="4.164" fill="url(#SVGID_1_)" width="40.606" height="147.848"/>
	<linearGradient id="SVGID_2_" gradientUnits="userSpaceOnUse" x1="25.5244" y1="36.2681" x2="1556.8314" y2="-179.0085">
		<stop  offset="0" style="stop-color:#FFCC47"/>
		<stop  offset="0.4783" style="stop-color:#FF4351"/>
		<stop  offset="1" style="stop-color:#2EA7D7"/>
	</linearGradient>
	<polygon fill="url(#SVGID_2_)" points="51.851,33.317 62.679,33.317 57.266,60.597 84.128,60.597 92.874,34.358 92.874,0 51.851,0 
			"/>
	<linearGradient id="SVGID_3_" gradientUnits="userSpaceOnUse" x1="36.1299" y1="111.6899" x2="1567.4" y2="-103.5815">
		<stop  offset="0" style="stop-color:#FFCC47"/>
		<stop  offset="0.4783" style="stop-color:#FF4351"/>
		<stop  offset="1" style="stop-color:#2EA7D7"/>
	</linearGradient>
	<polygon fill="url(#SVGID_3_)" points="153.887,117.29 134.312,43.938 93.707,43.938 130.563,152.012 173.669,152.012 
		210.526,43.938 173.669,43.938 	"/>
	<linearGradient id="SVGID_4_" gradientUnits="userSpaceOnUse" x1="38.8164" y1="130.7954" x2="1570.0869" y2="-84.476">
		<stop  offset="0" style="stop-color:#FFCC47"/>
		<stop  offset="0.4783" style="stop-color:#FF4351"/>
		<stop  offset="1" style="stop-color:#2EA7D7"/>
	</linearGradient>
	<path fill="url(#SVGID_4_)" d="M303.816,50.067c-8.886-5.195-19.854-7.795-32.9-7.795c-13.052,0-24.019,2.625-32.901,7.874
		c-8.887,5.251-15.618,12.204-20.2,20.862c-4.58,8.658-6.871,18.169-6.871,28.528c0,7.25,1.317,14.154,3.956,20.716
		c2.637,6.566,6.488,12.378,11.558,17.434c5.066,5.06,11.349,9.06,18.846,12c7.495,2.938,16.033,4.408,25.613,4.408
		c8.882,0,16.866-1.285,23.946-3.854c7.08-2.566,13.224-6.07,18.429-10.516c5.206-4.439,9.268-9.578,12.183-15.409l-33.526-9.579
		c-1.25,3.473-3.784,6.181-7.601,8.122c-3.82,1.946-7.881,2.915-12.181,2.915c-3.057,0-6.008-0.525-8.851-1.58
		c-2.848-1.055-5.207-2.732-7.081-5.041c-1.874-2.307-2.951-5.306-3.227-8.996h76.838c0.276-1.641,0.521-3.518,0.73-5.639
		c0.207-2.119,0.311-4.203,0.311-6.256c0-9.979-2.291-19.206-6.871-27.685C319.434,62.1,312.699,55.264,303.816,50.067z
		 M252.174,86.417c0.417-3.39,1.421-6.256,3.02-8.603c1.595-2.346,3.677-4.17,6.247-5.476c2.567-1.301,5.519-1.956,8.851-1.956
		c3.33,0,6.279,0.655,8.851,1.956c2.566,1.306,4.649,3.13,6.246,5.476c1.595,2.347,2.603,5.213,3.02,8.603H252.174z"/>
	<linearGradient id="SVGID_5_" gradientUnits="userSpaceOnUse" x1="39.853" y1="138.2056" x2="1571.1453" y2="-77.0689">
		<stop  offset="0" style="stop-color:#FFCC47"/>
		<stop  offset="0.4783" style="stop-color:#FF4351"/>
		<stop  offset="1" style="stop-color:#2EA7D7"/>
	</linearGradient>
	<path fill="url(#SVGID_5_)" d="M421.258,4.164l-47.27,147.848h41.439l7.644-28.945h41.772l7.642,28.945h41.23L466.654,4.164
		H421.258z M430.217,95.996l13.739-52.058l13.741,52.058H430.217z"/>
	<linearGradient id="SVGID_6_" gradientUnits="userSpaceOnUse" x1="41.123" y1="147.2075" x2="1572.4086" y2="-68.066">
		<stop  offset="0" style="stop-color:#FFCC47"/>
		<stop  offset="0.4783" style="stop-color:#FF4351"/>
		<stop  offset="1" style="stop-color:#2EA7D7"/>
	</linearGradient>
	<path fill="url(#SVGID_6_)" d="M576.395,120.151c-1.946,0.559-3.748,0.834-5.415,0.834c-3.331,0-5.865-1.073-7.6-3.227
		c-1.737-2.152-2.603-5.24-2.603-9.268V0h-39.565v122.442c0,10.137,2.845,17.945,8.537,23.428
		c5.691,5.484,13.813,8.225,24.363,8.225c5.274,0,10.861-0.625,16.764-1.875c5.899-1.248,11.209-2.982,15.931-5.205l-4.997-29.152
		C580.144,118.834,578.337,119.599,576.395,120.151z"/>
	<linearGradient id="SVGID_7_" gradientUnits="userSpaceOnUse" x1="46.0581" y1="182.3237" x2="1577.3429" y2="-32.9497">
		<stop  offset="0" style="stop-color:#FFCC47"/>
		<stop  offset="0.4783" style="stop-color:#FF4351"/>
		<stop  offset="1" style="stop-color:#2EA7D7"/>
	</linearGradient>
	<polygon fill="url(#SVGID_7_)" points="722.995,43.938 696.965,115.44 689.677,91.195 709.667,43.938 677.807,43.938 
		668.437,75.58 659.067,43.938 627.206,43.938 647.197,91.195 639.909,115.44 613.879,43.938 576.604,43.938 621.376,152.012 
		653.652,152.012 668.437,110.917 683.222,152.012 715.498,152.012 760.27,43.938 	"/>
	<linearGradient id="SVGID_8_" gradientUnits="userSpaceOnUse" x1="49.7368" y1="208.5161" x2="1581.0305" y2="-6.7586">
		<stop  offset="0" style="stop-color:#FFCC47"/>
		<stop  offset="0.4783" style="stop-color:#FF4351"/>
		<stop  offset="1" style="stop-color:#2EA7D7"/>
	</linearGradient>
	<path fill="url(#SVGID_8_)" d="M869.803,116.153c-1.114-1.422-1.663-3.963-1.663-7.619V87.801c0-15.039-4.759-26.387-14.268-34.044
		c-9.509-7.656-22.941-11.485-40.292-11.485c-9.304,0-18.014,1.146-26.135,3.436c-8.122,2.29-15.861,5.797-23.219,10.517
		l11.452,24.572c5.832-3.886,11.418-6.837,16.765-8.851c5.342-2.01,11.069-3.019,17.18-3.019c6.664,0,11.485,1.197,14.473,3.584
		c2.981,2.392,4.478,6.055,4.478,10.991v3.332c-2.78-1.385-6.077-2.427-9.893-3.123c-3.82-0.693-7.881-1.042-12.181-1.042
		c-9.163,0-17.32,1.572-24.469,4.709c-7.152,3.135-12.738,7.469-16.763,12.995c-4.028,5.523-6.04,11.905-6.04,19.135
		c0,6.549,1.667,12.451,4.998,17.703c3.332,5.252,7.912,9.379,13.743,12.379s12.355,4.504,19.574,4.504s14.021-1.633,20.408-4.893
		c6.383-3.262,12.007-8.018,16.866-14.266l0.833,3.957c1.11,4.998,3.506,8.781,7.186,11.348c3.676,2.568,9.06,3.854,16.139,3.854
		c2.22,0,4.754-0.176,7.599-0.52c2.845-0.35,5.863-0.869,9.06-1.563v-33.318C872.854,118.424,870.911,117.579,869.803,116.153z
		 M828.573,114.553c0,1.314-0.49,2.593-1.46,3.838c-0.97,1.25-2.222,2.398-3.748,3.445c-1.805,1.182-3.992,2.133-6.559,2.854
		c-2.57,0.725-5.035,1.084-7.393,1.084c-2.499,0-4.722-0.426-6.662-1.277c-1.947-0.854-3.474-2.034-4.582-3.543
		c-1.112-1.51-1.666-3.184-1.666-5.021c0-3.414,1.63-6.234,4.893-8.467c3.261-2.23,7.252-3.348,11.974-3.348
		c2.22,0,4.754,0.264,7.602,0.787c2.843,0.527,5.378,1.182,7.602,1.969V114.553z"/>
	<linearGradient id="SVGID_9_" gradientUnits="userSpaceOnUse" x1="54.1855" y1="240.0493" x2="1585.4517" y2="24.7785">
		<stop  offset="0" style="stop-color:#FFCC47"/>
		<stop  offset="0.4783" style="stop-color:#FF4351"/>
		<stop  offset="1" style="stop-color:#2EA7D7"/>
	</linearGradient>
	<path fill="url(#SVGID_9_)" d="M936.027,112.213l-20.826-68.275h-40.605l39.772,108.498c-0.281,3.07-0.972,5.677-2.083,7.816
		c-1.11,2.143-2.637,3.734-4.581,4.773c-1.943,1.043-4.373,1.563-7.288,1.563c-2.223,0-4.684-0.313-7.392-0.938
		c-2.706-0.625-5.658-1.492-8.85-2.604v33.736c3.333,1.385,6.695,2.395,10.1,3.018c3.399,0.625,6.835,0.938,10.307,0.938
		c7.497,0,14.505-1.486,21.031-4.451c6.525-2.971,12.146-7.102,16.869-12.396c4.717-5.296,8.118-11.45,10.201-18.46l37.064-121.493
		h-36.856L936.027,112.213z"/>
	<linearGradient id="SVGID_10_" gradientUnits="userSpaceOnUse" x1="53.7544" y1="237.2173" x2="1585.076" y2="21.9386">
		<stop  offset="0" style="stop-color:#FFCC47"/>
		<stop  offset="0.4783" style="stop-color:#FF4351"/>
		<stop  offset="1" style="stop-color:#2EA7D7"/>
	</linearGradient>
	<path fill="url(#SVGID_10_)" d="M1069.92,92.633c-5.968-2.777-13.675-5.519-23.112-8.229c-3.196-0.946-5.831-1.792-7.914-2.537
		c-2.08-0.746-3.611-1.559-4.58-2.44c-0.975-0.879-1.458-1.999-1.458-3.352c0-1.353,0.344-2.437,1.042-3.251
		c0.691-0.813,1.697-1.422,3.017-1.828c1.32-0.407,2.881-0.613,4.688-0.613c3.749,0,8.017,0.905,12.808,2.708
		c4.789,1.806,10.651,4.86,17.596,9.162l14.993-24.156c-6.944-5.967-14.131-10.099-21.552-12.389
		c-7.431-2.291-14.822-3.436-22.179-3.436c-9.858,0-18.294,1.635-25.3,4.907c-7.014,3.272-12.393,7.736-16.141,13.392
		c-3.746,5.655-5.619,12.161-5.619,19.522c0,6.271,1.422,11.277,4.267,15.025s7.146,6.915,12.912,9.503
		c5.761,2.591,12.941,5.385,21.552,8.381c3.333,0.959,6.07,1.844,8.224,2.66c2.151,0.818,3.714,1.636,4.687,2.453
		c0.969,0.82,1.46,1.842,1.46,3.064c0,1.584-0.698,2.711-2.083,3.382c-1.392,0.669-3.543,1.003-6.456,1.003
		c-5.141,0-10.864-1.249-17.181-3.748c-6.317-2.498-12.879-5.966-19.679-10.412l-13.535,24.363
		c6.383,5.973,14.194,10.518,23.429,13.641c9.23,3.124,18.634,4.686,28.213,4.686c14.021,0,25.095-3.182,33.217-9.549
		c8.119-6.365,12.182-15.17,12.182-26.414c0-6.363-1.428-11.512-4.272-15.442C1080.298,98.763,1075.89,95.41,1069.92,92.633z"/>
	<linearGradient id="SVGID_11_" gradientUnits="userSpaceOnUse" x1="53.9077" y1="238.0532" x2="1585.179" y2="22.7817">
		<stop  offset="0" style="stop-color:#FFCC47"/>
		<stop  offset="0.4783" style="stop-color:#FF4351"/>
		<stop  offset="1" style="stop-color:#2EA7D7"/>
	</linearGradient>
	<path fill="url(#SVGID_11_)" d="M1250.251,76.214c7.079-3.192,12.39-7.982,15.931-14.369c3.538-6.383,5.309-12.979,5.309-19.782
		c0-6.249-1.353-12.287-4.059-18.117c-2.708-5.831-6.598-10.584-11.662-14.266c-5.069-3.675-11.073-5.518-18.014-5.518h-85.793
		v147.848h72.676c9.714,0,18.6-1.318,26.652-3.957c8.049-2.635,14.473-6.73,19.264-12.287c4.788-5.549,7.184-12.77,7.184-21.654
		c0-10.271-2.469-18.534-7.394-24.78C1265.417,83.085,1258.717,78.713,1250.251,76.214z M1192.57,38.731h28.942
		c1.803,0,3.438,0.384,4.896,1.146c1.458,0.765,2.632,1.946,3.538,3.541c0.901,1.598,1.355,3.784,1.355,6.559
		c0,3.056-0.56,5.415-1.668,7.08c-1.113,1.665-2.498,2.811-4.163,3.436c-1.668,0.624-3.404,0.937-5.209,0.937h-27.692V38.731z
		 M1234.945,112.239c-1.042,1.807-2.466,3.196-4.268,4.166c-1.808,0.971-3.822,1.457-6.039,1.457h-32.068v-24.78h33.523
		c2.086,0,3.888,0.557,5.416,1.666c1.526,1.111,2.74,2.602,3.644,4.476c0.9,1.875,1.353,4.062,1.353,6.561
		C1236.506,108.282,1235.985,110.436,1234.945,112.239z"/>
	<linearGradient id="SVGID_12_" gradientUnits="userSpaceOnUse" x1="59.6641" y1="279.1255" x2="1590.9523" y2="63.8516">
		<stop  offset="0" style="stop-color:#FFCC47"/>
		<stop  offset="0.4783" style="stop-color:#FF4351"/>
		<stop  offset="1" style="stop-color:#2EA7D7"/>
	</linearGradient>
	<path fill="url(#SVGID_12_)" d="M1379.772,50.067c-8.888-5.195-19.856-7.795-32.903-7.795c-13.049,0-24.018,2.625-32.901,7.874
		c-8.883,5.251-15.617,12.204-20.198,20.862s-6.869,18.169-6.869,28.528c0,7.25,1.313,14.154,3.956,20.716
		c2.632,6.566,6.485,12.378,11.555,17.434c5.066,5.06,11.35,9.06,18.846,12c7.496,2.938,16.035,4.408,25.612,4.408
		c8.884,0,16.868-1.285,23.949-3.854c7.079-2.566,13.223-6.07,18.429-10.516c5.206-4.439,9.264-9.578,12.18-15.409l-33.526-9.579
		c-1.247,3.473-3.782,6.181-7.599,8.122c-3.819,1.946-7.883,2.915-12.183,2.915c-3.055,0-6.004-0.525-8.852-1.58
		c-2.845-1.055-5.203-2.732-7.079-5.041c-1.875-2.307-2.952-5.306-3.226-8.996h76.837c0.278-1.641,0.522-3.518,0.73-5.639
		c0.21-2.119,0.313-4.203,0.313-6.256c0-9.979-2.293-19.206-6.874-27.685C1395.391,62.1,1388.653,55.264,1379.772,50.067z
		 M1328.128,86.417c0.418-3.39,1.424-6.256,3.019-8.603c1.595-2.346,3.677-4.17,6.248-5.476c2.569-1.301,5.519-1.956,8.852-1.956
		c3.331,0,6.278,0.655,8.85,1.956c2.566,1.306,4.649,3.13,6.246,5.476c1.597,2.347,2.603,5.213,3.021,8.603H1328.128z"/>
	<linearGradient id="SVGID_13_" gradientUnits="userSpaceOnUse" x1="62.1255" y1="296.6069" x2="1593.4084" y2="81.3337">
		<stop  offset="0" style="stop-color:#FFCC47"/>
		<stop  offset="0.4783" style="stop-color:#FF4351"/>
		<stop  offset="1" style="stop-color:#2EA7D7"/>
	</linearGradient>
	<path fill="url(#SVGID_13_)" d="M1506.587,50.067c-8.889-5.195-19.855-7.795-32.901-7.795c-13.052,0-24.021,2.625-32.901,7.874
		c-8.889,5.251-15.618,12.204-20.201,20.862c-4.581,8.658-6.871,18.169-6.871,28.528c0,7.25,1.318,14.154,3.955,20.716
		c2.635,6.566,6.488,12.378,11.558,17.434c5.069,5.06,11.35,9.06,18.846,12c7.497,2.938,16.033,4.408,25.615,4.408
		c8.881,0,16.865-1.285,23.946-3.854c7.079-2.566,13.223-6.07,18.429-10.516c5.206-4.439,9.267-9.578,12.183-15.409l-33.526-9.579
		c-1.25,3.473-3.785,6.181-7.602,8.122c-3.821,1.946-7.88,2.915-12.183,2.915c-3.057,0-6.007-0.525-8.847-1.58
		c-2.85-1.055-5.208-2.732-7.083-5.041c-1.873-2.307-2.95-5.306-3.229-8.996h76.842c0.273-1.641,0.518-3.518,0.728-5.639
		c0.208-2.119,0.313-4.203,0.313-6.256c0-9.979-2.29-19.206-6.871-27.685C1522.204,62.1,1515.468,55.264,1506.587,50.067z
		 M1454.942,86.417c0.414-3.39,1.423-6.256,3.02-8.603c1.595-2.346,3.678-4.17,6.249-5.476c2.566-1.301,5.517-1.956,8.85-1.956
		c3.33,0,6.277,0.655,8.849,1.956c2.566,1.306,4.652,3.13,6.249,5.476c1.592,2.347,2.603,5.213,3.018,8.603H1454.942z"/>
	<linearGradient id="SVGID_14_" gradientUnits="userSpaceOnUse" x1="64.5918" y1="314.0601" x2="1595.8589" y2="98.7891">
		<stop  offset="0" style="stop-color:#FFCC47"/>
		<stop  offset="0.4783" style="stop-color:#FF4351"/>
		<stop  offset="1" style="stop-color:#2EA7D7"/>
	</linearGradient>
	<path fill="url(#SVGID_14_)" d="M1655.682,68.991c-0.695-4.436-2.153-8.701-4.373-12.798c-2.222-4.092-5.553-7.438-9.997-10.03
		c-4.441-2.594-10.412-3.892-17.906-3.892c-6.246,0-12.011,0.684-17.283,2.045c-5.278,1.368-9.926,3.38-13.952,6.039
		c-4.029,2.663-7.359,5.974-9.997,9.932v-16.35h-35.606v108.074h39.565V91.613c1.247-2.889,2.912-5.449,4.995-7.681
		c2.083-2.233,4.376-3.974,6.874-5.223c2.498-1.246,4.856-1.871,7.079-1.871c3.191,0,6.004,1.187,8.434,3.556
		c2.428,2.373,3.646,6.199,3.646,11.479v60.138h39.565V81.173C1656.725,77.489,1656.375,73.43,1655.682,68.991z"/>
</g>
</svg>
